# xmcd
#
# Track frame offsets:
#	150
#	13715
#	25587
#	40547
#	50197
#	63795
#	73440
#	85292
#	98332
#	111685
#
# Disc length: 1658 seconds
#
# Revision: 0
# Processed by: cddbd v1.4PL0 Copyright (c) Steve Scherf et al.
# Submitted via: dBpowerAMP V4.0
#
DISCID=8106780a
DTITLE=Platters and Drifters - Together for Christmas
DYEAR=1900
DGENRE=Christmas
TTITLE0=Winter Wonderland
TTITLE1=We Wish You A Merry Christmas
TTITLE2=O Holy Night
TTITLE3=Deck the Halls
TTITLE4=I Saw Mommy Kissing Santa Claus
TTITLE5=Here Comes Santa Claus
TTITLE6=Christmas Just Ain't Christmas
TTITLE7=Silver Bells
TTITLE8=God Rest Ye Merry Gentlemen
TTITLE9=Joy to the World
EXTD=
EXTT0=
EXTT1=
EXTT2=
EXTT3=
EXTT4=
EXTT5=
EXTT6=
EXTT7=
EXTT8=
EXTT9=
PLAYORDER=
